<svg version="1.1" xmlns="http://www.w3.org/2000/svg" xmlns:xlink="http://www.w3.org/1999/xlink" width="513.51351" height="408.40841" viewBox="0,0,513.51351,408.40841"><g transform="translate(23.51351,22.7027)"><g data-paper-data="{&quot;isPaintingLayer&quot;:true}" fill-rule="nonzero" stroke-linejoin="miter" stroke-miterlimit="10" stroke-dasharray="" stroke-dashoffset="0" style="mix-blend-mode: normal"><path d="M-23.51351,385.70571v-408.40841h513.51351v408.40841z" fill="#ffffff" stroke="none" stroke-width="0" stroke-linecap="butt"/><text transform="translate(45.55556,120.52991) scale(1.60155,1.60155)" font-size="40" xml:space="preserve" fill="#000000" fill-rule="nonzero" stroke="none" stroke-width="1" stroke-linecap="butt" stroke-linejoin="miter" stroke-miterlimit="10" stroke-dasharray="" stroke-dashoffset="0" font-family="Serif" font-weight="normal" text-anchor="start" style="mix-blend-mode: normal"><tspan x="0" dy="0">You</tspan></text><g stroke="#000000" stroke-width="5"><path d="M127.04957,305c0,19.19189 -15.69223,34.75 -35.04957,34.75c-19.35734,0 -35.04957,-15.55811 -35.04957,-34.75c0,-19.19189 15.69223,-34.75 35.04957,-34.75c19.35734,0 35.04957,15.55811 35.04957,34.75z" fill="#ffffff" stroke-linecap="butt"/><path d="M84.66056,295.56358c0,3.39167 -2.88361,6.14116 -6.44073,6.14116c-3.55712,0 -6.44073,-2.74949 -6.44073,-6.14116c0,-3.39167 2.88361,-6.14116 6.44073,-6.14116c3.55712,0 6.44073,2.74949 6.44073,6.14116z" fill="#000000" stroke-linecap="butt"/><path d="M113.11961,296.16272c0,3.39167 -2.88361,6.14116 -6.44073,6.14116c-3.55712,0 -6.44073,-2.74949 -6.44073,-6.14116c0,-3.39167 2.88361,-6.14116 6.44073,-6.14116c3.55712,0 6.44073,2.74949 6.44073,6.14116z" fill="#000000" stroke-linecap="butt"/><path d="M117.63572,311.79034l-3.12191,6.90218l-7.10362,6.66285l-6.533,3.6034l-5.71322,0.68783l-5.8929,-0.61203l-7.9041,-2.53761l-6.23681,-3.46864l-3.42653,-3.0419l-3.10788,-4.054l-2.04946,-4.506" fill="none" stroke-linecap="round"/></g><g stroke="#000000" stroke-width="5"><path d="M274.04957,305c0,19.19189 -15.69223,34.75 -35.04957,34.75c-19.35734,0 -35.04957,-15.55811 -35.04957,-34.75c0,-19.19189 15.69223,-34.75 35.04957,-34.75c19.35734,0 35.04957,15.55811 35.04957,34.75z" fill="#ffffff" stroke-linecap="butt"/><path d="M231.66056,295.56358c0,3.39167 -2.88361,6.14116 -6.44073,6.14116c-3.55712,0 -6.44073,-2.74949 -6.44073,-6.14116c0,-3.39167 2.88361,-6.14116 6.44073,-6.14116c3.55712,0 6.44073,2.74949 6.44073,6.14116z" fill="#000000" stroke-linecap="butt"/><path d="M260.11961,296.16272c0,3.39167 -2.88361,6.14116 -6.44073,6.14116c-3.55712,0 -6.44073,-2.74949 -6.44073,-6.14116c0,-3.39167 2.88361,-6.14116 6.44073,-6.14116c3.55712,0 6.44073,2.74949 6.44073,6.14116z" fill="#000000" stroke-linecap="butt"/><path d="M264.63572,311.79034l-3.12191,6.90218l-7.10362,6.66285l-6.533,3.6034l-5.71322,0.68783l-5.8929,-0.61203l-7.9041,-2.53761l-6.23681,-3.46864l-3.42653,-3.0419l-3.10788,-4.054l-2.04946,-4.506" fill="none" stroke-linecap="round"/></g><g stroke="#000000" stroke-width="5"><path d="M419.04957,302c0,19.19189 -15.69223,34.75 -35.04957,34.75c-19.35734,0 -35.04957,-15.55811 -35.04957,-34.75c0,-19.19189 15.69223,-34.75 35.04957,-34.75c19.35734,0 35.04957,15.55811 35.04957,34.75z" fill="#ffffff" stroke-linecap="butt"/><path d="M376.66056,292.56358c0,3.39167 -2.88361,6.14116 -6.44073,6.14116c-3.55712,0 -6.44073,-2.74949 -6.44073,-6.14116c0,-3.39167 2.88361,-6.14116 6.44073,-6.14116c3.55712,0 6.44073,2.74949 6.44073,6.14116z" fill="#000000" stroke-linecap="butt"/><path d="M405.11961,293.16272c0,3.39167 -2.88361,6.14116 -6.44073,6.14116c-3.55712,0 -6.44073,-2.74949 -6.44073,-6.14116c0,-3.39167 2.88361,-6.14116 6.44073,-6.14116c3.55712,0 6.44073,2.74949 6.44073,6.14116z" fill="#000000" stroke-linecap="butt"/><path d="M409.63572,308.79034l-3.12191,6.90218l-7.10362,6.66285l-6.533,3.6034l-5.71322,0.68783l-5.8929,-0.61203l-7.9041,-2.53761l-6.23681,-3.46864l-3.42653,-3.0419l-3.10788,-4.054l-2.04946,-4.506" fill="none" stroke-linecap="round"/></g></g></g></svg>